<svg xmlns="http://www.w3.org/2000/svg" width="1200" height="630" viewBox="0 0 1200 630" role="img" aria-labelledby="title desc">
  <title id="title">Pavithran G AI and ML Developer Portfolio</title>
  <desc id="desc">Portfolio preview image for pavithraninfo.dev.</desc>
  <defs>
    <linearGradient id="bg" x1="0" y1="0" x2="1" y2="1">
      <stop offset="0%" stop-color="#09131c"/>
      <stop offset="100%" stop-color="#10293f"/>
    </linearGradient>
    <linearGradient id="accent" x1="0" y1="0" x2="1" y2="0">
      <stop offset="0%" stop-color="#00d4ff"/>
      <stop offset="100%" stop-color="#78ffbd"/>
    </linearGradient>
  </defs>
  <rect width="1200" height="630" fill="url(#bg)"/>
  <g opacity="0.25" stroke="#5ee5ff" stroke-width="1">
    <path d="M0 90h1200M0 180h1200M0 270h1200M0 360h1200M0 450h1200M0 540h1200"/>
    <path d="M120 0v630M240 0v630M360 0v630M480 0v630M600 0v630M720 0v630M840 0v630M960 0v630M1080 0v630"/>
  </g>
  <rect x="100" y="130" width="1000" height="370" rx="20" fill="rgba(9,19,28,0.58)" stroke="url(#accent)" stroke-width="2"/>
  <text x="150" y="240" fill="#d8f3ff" font-family="Space Grotesk, Arial, sans-serif" font-size="64" font-weight="700">Pavithran G</text>
  <text x="150" y="310" fill="#9cecff" font-family="Space Grotesk, Arial, sans-serif" font-size="38" font-weight="500">AI and ML Developer</text>
  <text x="150" y="375" fill="#b8ced9" font-family="IBM Plex Mono, Consolas, monospace" font-size="28">
    Machine Learning | Computer Vision | Automation
  </text>
  <text x="150" y="435" fill="#b8ced9" font-family="IBM Plex Mono, Consolas, monospace" font-size="24">
    pavithraninfo.dev
  </text>
  <circle cx="1030" cy="190" r="38" fill="none" stroke="#78ffbd" stroke-width="4"/>
  <circle cx="1030" cy="190" r="12" fill="#00d4ff"/>
</svg>
