<svg xmlns="http://www.w3.org/2000/svg" viewBox="0 0 1200 630" role="img" aria-label="Pavithran G AI and ML Developer Portfolio">
  <defs>
    <linearGradient id="bg" x1="0" y1="0" x2="1200" y2="630" gradientUnits="userSpaceOnUse">
      <stop offset="0" stop-color="#05080d"/>
      <stop offset="0.5" stop-color="#09131d"/>
      <stop offset="1" stop-color="#04111b"/>
    </linearGradient>
    <linearGradient id="accent" x1="260" y1="140" x2="940" y2="520" gradientUnits="userSpaceOnUse">
      <stop offset="0" stop-color="#39d0ff"/>
      <stop offset="1" stop-color="#9effb6"/>
    </linearGradient>
    <radialGradient id="glow" cx="0" cy="0" r="1" gradientUnits="userSpaceOnUse" gradientTransform="translate(860 160) rotate(120) scale(330 220)">
      <stop offset="0" stop-color="#39d0ff" stop-opacity="0.32"/>
      <stop offset="1" stop-color="#39d0ff" stop-opacity="0"/>
    </radialGradient>
  </defs>
  <rect width="1200" height="630" fill="url(#bg)"/>
  <rect x="58" y="58" width="1084" height="514" rx="34" fill="none" stroke="url(#accent)" stroke-opacity="0.4" stroke-width="2"/>
  <circle cx="940" cy="170" r="180" fill="url(#glow)"/>
  <circle cx="240" cy="480" r="180" fill="#9effb6" fill-opacity="0.08"/>
  <path d="M110 120H240" stroke="url(#accent)" stroke-opacity="0.7" stroke-width="3" stroke-linecap="round"/>
  <path d="M960 510H1090" stroke="url(#accent)" stroke-opacity="0.7" stroke-width="3" stroke-linecap="round"/>
  <text x="110" y="238" fill="#f3fbff" font-family="Arial, sans-serif" font-size="74" font-weight="700" letter-spacing="4">PAVITHRAN G</text>
  <text x="110" y="300" fill="#39d0ff" font-family="Arial, sans-serif" font-size="30" font-weight="700" letter-spacing="6">AI &amp; ML DEVELOPER</text>
  <text x="110" y="368" fill="#b8c7d4" font-family="Arial, sans-serif" font-size="24" font-weight="400">Machine Learning • Computer Vision • Automation</text>
  <text x="110" y="414" fill="#b8c7d4" font-family="Arial, sans-serif" font-size="24" font-weight="400">React • Python • TensorFlow • UiPath • n8n</text>
  <rect x="110" y="458" width="256" height="54" rx="27" fill="url(#accent)"/>
  <text x="138" y="493" fill="#04111b" font-family="Arial, sans-serif" font-size="22" font-weight="700">Portfolio Showcase</text>
  <path d="M1010 180l62 62-62 62-62-62 62-62Z" fill="none" stroke="url(#accent)" stroke-width="4" opacity="0.9"/>
  <path d="M1010 214l28 28-28 28-28-28 28-28Z" fill="none" stroke="#ffffff" stroke-opacity="0.55" stroke-width="2"/>
</svg><svg xmlns="http://www.w3.org/2000/svg" width="1200" height="630" viewBox="0 0 1200 630" role="img" aria-labelledby="title desc">
  <title id="title">Pavithran G AI and ML Developer Portfolio</title>
  <desc id="desc">Portfolio preview image for pavithraninfo.dev.</desc>
  <defs>
    <linearGradient id="bg" x1="0" y1="0" x2="1" y2="1">
      <stop offset="0%" stop-color="#09131c"/>
      <stop offset="100%" stop-color="#10293f"/>
    </linearGradient>
    <linearGradient id="accent" x1="0" y1="0" x2="1" y2="0">
      <stop offset="0%" stop-color="#00d4ff"/>
      <stop offset="100%" stop-color="#78ffbd"/>
    </linearGradient>
  </defs>
  <rect width="1200" height="630" fill="url(#bg)"/>
  <g opacity="0.25" stroke="#5ee5ff" stroke-width="1">
    <path d="M0 90h1200M0 180h1200M0 270h1200M0 360h1200M0 450h1200M0 540h1200"/>
    <path d="M120 0v630M240 0v630M360 0v630M480 0v630M600 0v630M720 0v630M840 0v630M960 0v630M1080 0v630"/>
  </g>
  <rect x="100" y="130" width="1000" height="370" rx="20" fill="rgba(9,19,28,0.58)" stroke="url(#accent)" stroke-width="2"/>
  <text x="150" y="240" fill="#d8f3ff" font-family="Space Grotesk, Arial, sans-serif" font-size="64" font-weight="700">Pavithran G</text>
  <text x="150" y="310" fill="#9cecff" font-family="Space Grotesk, Arial, sans-serif" font-size="38" font-weight="500">AI and ML Developer</text>
  <text x="150" y="375" fill="#b8ced9" font-family="IBM Plex Mono, Consolas, monospace" font-size="28">
    Machine Learning | Computer Vision | Automation
  </text>
  <text x="150" y="435" fill="#b8ced9" font-family="IBM Plex Mono, Consolas, monospace" font-size="24">
    pavithraninfo.dev
  </text>
  <circle cx="1030" cy="190" r="38" fill="none" stroke="#78ffbd" stroke-width="4"/>
  <circle cx="1030" cy="190" r="12" fill="#00d4ff"/>
</svg>
